<svg width="32" height="41" viewBox="0 0 32 41" fill="none" xmlns="http://www.w3.org/2000/svg">
<path d="M13.7143 41C9.90476 41 6.66667 39.7412 4 37.2237C1.33333 34.7061 0 31.6491 0 28.0526V15.1053L11.4286 25.8947L8.22857 28.9697L4.57143 25.5171V28.0526C4.57143 30.4263 5.46667 32.4583 7.25714 34.1487C9.04762 35.839 11.2 36.6842 13.7143 36.6842C16.2286 36.6842 18.381 35.839 20.1714 34.1487C21.9619 32.4583 22.8571 30.4263 22.8571 28.0526V21.2013C21.5238 20.7338 20.4282 19.9519 19.5703 18.8557C18.7139 17.758 18.2857 16.5079 18.2857 15.1053C18.2857 13.7026 18.7139 12.4525 19.5703 11.3548C20.4282 10.2586 21.5238 9.47676 22.8571 9.00921V0H27.4286V9.00921C28.7619 9.47676 29.8575 10.2586 30.7154 11.3548C31.5718 12.4525 32 13.7026 32 15.1053C32 16.5079 31.5718 17.7667 30.7154 18.8816C29.8575 19.9965 28.7619 20.7697 27.4286 21.2013V28.0526C27.4286 31.6491 26.0952 34.7061 23.4286 37.2237C20.7619 39.7412 17.5238 41 13.7143 41ZM25.1429 17.2632C25.7905 17.2632 26.333 17.056 26.7703 16.6417C27.2091 16.2288 27.4286 15.7167 27.4286 15.1053C27.4286 14.4939 27.2091 13.981 26.7703 13.5667C26.333 13.1538 25.7905 12.9474 25.1429 12.9474C24.4952 12.9474 23.9528 13.1538 23.5154 13.5667C23.0766 13.981 22.8571 14.4939 22.8571 15.1053C22.8571 15.7167 23.0766 16.2288 23.5154 16.6417C23.9528 17.056 24.4952 17.2632 25.1429 17.2632Z" fill="#E63946"/>
</svg>
